<?xml version="1.0" encoding="utf-8"?>
<!-- Generator: Adobe Illustrator 18.0.0, SVG Export Plug-In . SVG Version: 6.00 Build 0)  -->
<!DOCTYPE svg PUBLIC "-//W3C//DTD SVG 1.1//EN" "http://www.w3.org/Graphics/SVG/1.1/DTD/svg11.dtd">
<svg version="1.1" id="Layer_1" xmlns="http://www.w3.org/2000/svg" xmlns:xlink="http://www.w3.org/1999/xlink" x="0px" y="0px"
	 viewBox="0 0 43 45.1" enable-background="new 0 0 43 45.1" xml:space="preserve">
<g transform="translate(0,-952.36218)">
	<path fill="#FFFFFF" d="M21.1,952.9c0.6,0,1.3,0.2,1.8,0.7c0.5,0.5,0.8,1.2,0.8,2.1v1.3c0.5-0.4,1.1-0.6,1.7-0.6
		c0.6,0,1.3,0.2,1.8,0.7c0.5,0.5,0.8,1.2,0.8,2.1v2.8c0.5-0.4,1.1-0.6,1.7-0.6c0.6,0,1.3,0.2,1.8,0.7c0.5,0.5,0.8,1.2,0.8,2.1v13.4
		c0,4-1.4,7-3.5,9c-2.1,2-4.9,3-7.7,3c-2.8,0-5.6-1-7.7-3c-2.1-2-3.5-5-3.5-9v-8.3c0-0.9,0.3-1.6,0.8-2.1c0.5-0.5,1.1-0.7,1.8-0.7
		c0.6,0,1.2,0.2,1.7,0.6v-7.9c0-0.9,0.3-1.6,0.8-2.1c0.5-0.5,1.1-0.7,1.8-0.7c0.6,0,1.2,0.2,1.7,0.6v-1.3c0-0.9,0.3-1.6,0.8-2.1
		C19.8,953.1,20.5,952.9,21.1,952.9L21.1,952.9z M21.1,953.8c-0.4,0-0.9,0.2-1.2,0.5c-0.3,0.3-0.5,0.7-0.5,1.4c0,5,0,10,0,15
		c0,0.2-0.2,0.5-0.4,0.5c-0.2,0-0.4-0.2-0.4-0.5c0-3.9,0-7.7,0-11.6c0-0.7-0.2-1.1-0.5-1.4c-0.3-0.3-0.8-0.5-1.2-0.5
		c-0.4,0-0.9,0.2-1.2,0.5c-0.3,0.3-0.5,0.7-0.5,1.4c0,6,0,12,0,18.1c0,0.2-0.2,0.5-0.4,0.5c-0.2,0-0.4-0.2-0.4-0.5c0-2.7,0-5.3,0-8
		c0-0.7-0.2-1.1-0.5-1.4c-0.3-0.3-0.7-0.5-1.2-0.5c-0.4,0-0.9,0.2-1.2,0.5c-0.3,0.3-0.5,0.7-0.5,1.4v8.3c0,3.7,1.3,6.5,3.2,8.3
		c1.9,1.8,4.5,2.8,7.1,2.8c2.6,0,5.2-0.9,7.1-2.8s3.2-4.6,3.2-8.3V964c0-0.7-0.2-1.1-0.5-1.4c-0.3-0.3-0.8-0.5-1.2-0.5
		c-0.4,0-0.9,0.2-1.2,0.5S28,963.4,28,964c0,2.8,0,5.6,0,8.4c0,0.2-0.2,0.5-0.4,0.5c-0.2,0-0.4-0.2-0.4-0.5c0-4.4,0-8.9,0-13.3
		c0-0.7-0.2-1.1-0.5-1.4c-0.3-0.3-0.7-0.5-1.2-0.5c-0.4,0-0.9,0.2-1.2,0.5c-0.3,0.3-0.5,0.7-0.5,1.4c0,0,0,0,0,0v11.7
		c0,0.2-0.2,0.5-0.4,0.5c-0.2,0-0.4-0.2-0.4-0.5c0-5.1,0-10.1,0-15.2c0-0.7-0.2-1.1-0.5-1.4C22,954,21.5,953.8,21.1,953.8z"/>
	<path fill="#FFFFFF" d="M16,983.4c0.1,0,0.2,0,0.3,0.1c0.2,0.2,0.5,0.4,0.7,0.5c0.2,0.1,0.3,0.4,0.2,0.6c-0.1,0.2-0.4,0.3-0.6,0.2
		c-0.3-0.2-0.6-0.4-0.8-0.6c-0.2-0.2-0.2-0.5-0.1-0.7C15.7,983.4,15.8,983.4,16,983.4L16,983.4z"/>
	<path fill="#FFFFFF" d="M28.5,978.5c0.2,0,0.4,0.2,0.4,0.5c0,0,0,0.1,0,0.1c-0.6,3.1-2.2,5.1-4.1,6.1c-1.9,1.1-4.1,1.2-6,0.7
		c-0.2-0.1-0.4-0.3-0.3-0.6c0.1-0.3,0.3-0.4,0.5-0.3c0,0,0,0,0,0c1.7,0.5,3.7,0.3,5.4-0.6c1.7-0.9,3-2.6,3.6-5.5
		C28.1,978.6,28.3,978.5,28.5,978.5L28.5,978.5z"/>
</g>
</svg>
