<?xml version="1.0" encoding="utf-8"?>
<!-- Generator: Adobe Illustrator 18.0.0, SVG Export Plug-In . SVG Version: 6.00 Build 0)  -->
<!DOCTYPE svg PUBLIC "-//W3C//DTD SVG 1.1//EN" "http://www.w3.org/Graphics/SVG/1.1/DTD/svg11.dtd">
<svg version="1.1" id="Layer_1" xmlns="http://www.w3.org/2000/svg" xmlns:xlink="http://www.w3.org/1999/xlink" x="0px" y="0px"
	 viewBox="0 0 43 45.1" enable-background="new 0 0 43 45.1" xml:space="preserve">
<g>
	<g>
		<rect x="12.7" y="18.8" fill="#FFFFFF" width="1" height="4.2"/>
		<rect x="12.7" y="11.3" fill="#FFFFFF" width="1" height="4.2"/>
		<path fill="#FFFFFF" d="M25.9,40l12.7-7.6V1.9l-6.9,4.5c-1.5-1.4-3.5-2.2-5.7-2.2c-2.2,0-4.3,0.9-5.8,2.3l-7.1-4.6L0.5,8.4V40
			l12.7-7.9L25.9,40z M26,5.2c4.2,0,7.6,3.4,7.6,7.6c0,0.7-0.1,1.4-0.3,2c-0.1,0.3-0.2,0.5-0.3,0.8L32.8,16L26,28.6L19.2,16L19,15.5
			c-0.1-0.2-0.2-0.5-0.3-0.8c-0.2-0.7-0.3-1.3-0.3-2C18.4,8.5,21.8,5.2,26,5.2z M1.5,38.3V9l11.3-5.7V8h1V3.4l5.9,3.8
			c-1.3,1.5-2.1,3.4-2.1,5.5c0,0.8,0.1,1.6,0.3,2.3c0.1,0.3,0.2,0.6,0.3,0.9l0.3,0.6L26,30.6l7.7-14.2l0.2-0.5
			c0.1-0.3,0.2-0.6,0.3-0.9c0.2-0.7,0.3-1.5,0.3-2.3c0-2.2-0.8-4.1-2.2-5.6l5.3-3.4v28.2l-11.2,6.7v-4.7h-1v4.8l-11.8-7.4l0,0v-4.9
			h-1v4.9l0,0L1.5,38.3z"/>
		<path fill="#FFFFFF" d="M26,16.4c2.1,0,3.8-1.7,3.8-3.8c0-2.1-1.7-3.8-3.8-3.8c-2.1,0-3.8,1.7-3.8,3.8
			C22.2,14.7,23.9,16.4,26,16.4z M26,9.8c1.6,0,2.8,1.3,2.8,2.8c0,1.6-1.3,2.8-2.8,2.8c-1.6,0-2.8-1.3-2.8-2.8
			C23.2,11.1,24.5,9.8,26,9.8z"/>
	</g>
</g>
</svg>
