<?xml version="1.0" encoding="utf-8"?>
<!-- Generator: Adobe Illustrator 18.0.0, SVG Export Plug-In . SVG Version: 6.00 Build 0)  -->
<!DOCTYPE svg PUBLIC "-//W3C//DTD SVG 1.1//EN" "http://www.w3.org/Graphics/SVG/1.1/DTD/svg11.dtd">
<svg version="1.1" id="Layer_1" xmlns="http://www.w3.org/2000/svg" xmlns:xlink="http://www.w3.org/1999/xlink" x="0px" y="0px"
	 viewBox="0 0 160 56" enable-background="new 0 0 160 56" xml:space="preserve">
<circle fill="none" stroke="#C69C6D" stroke-width="2.8347" stroke-miterlimit="10" cx="28.3" cy="27.3" r="20.2"/>
<circle fill="none" stroke="#C69C6D" stroke-width="2.8347" stroke-miterlimit="10" cx="80.3" cy="27.3" r="20.2"/>
<circle fill="none" stroke="#C69C6D" stroke-width="2.8347" stroke-miterlimit="10" cx="131.3" cy="27.3" r="20.2"/>
<path id="viber_5_" fill="#FFFFFF" d="M86.6,20.9c-0.6-0.5-1.3-0.9-2.1-1.1c-2-0.5-4-0.6-6-0.4c-1,0.1-2,0.4-2.9,0.9
	c-1.1,0.6-1.8,1.5-2.1,2.6c-0.2,0.9-0.3,1.7-0.4,2.6c-0.1,1.3,0,2.6,0.3,3.8c0.4,1.5,1.2,2.5,2.6,3.1c0.2,0.1,0.3,0.1,0.5,0.2
	c0.1,0.1,0.2,0.2,0.2,0.3c0,1,0,2,0,3.1c0.4-0.4,0.6-0.6,0.8-0.8c0.6-0.6,1.1-1.2,1.7-1.8c0.3-0.3,0.2-0.3,0.6-0.3
	c0.5,0,1.4,0,1.9,0c1-0.1,2-0.2,3-0.5c1.3-0.4,2.3-1.1,2.8-2.3c0.1-0.3,0.3-0.7,0.4-1c0.5-2,0.4-4.1,0-6.1
	C87.7,22.4,87.3,21.6,86.6,20.9z M80.3,22.2c0-0.2,0.1-0.3,0.3-0.3c1.6,0.1,2.7,0.5,3.6,1.8c0.5,0.7,0.8,1.7,0.8,2.6
	c0,0.1,0,0.3,0,0.4c0,0.1-0.1,0.3-0.2,0.3c-0.2,0-0.3-0.1-0.3-0.3c0-0.7-0.2-1.3-0.4-1.9c-0.5-1.2-1.4-1.8-2.6-2.1
	c-0.3-0.1-0.6-0.1-1-0.2C80.4,22.4,80.3,22.4,80.3,22.2z M81.9,23.8c-0.3-0.1-0.6-0.2-1-0.2c-0.2,0-0.3-0.1-0.2-0.3
	c0-0.2,0.1-0.2,0.3-0.2c1.1,0.1,1.9,0.5,2.5,1.4c0.3,0.4,0.4,1.1,0.4,1.5c0,0.3-0.1,0.4-0.3,0.4c-0.3,0-0.2-0.2-0.3-0.4
	c0-0.3-0.1-0.5-0.2-0.8C83,24.6,82.6,24.1,81.9,23.8z M82.8,25.7c0,0.1,0,0.2,0,0.2c0,0.1-0.1,0.2-0.2,0.2c-0.1,0-0.2-0.1-0.2-0.2
	c0-0.1,0-0.2,0-0.2c-0.1-0.4-0.3-0.7-0.8-0.8c-0.1,0-0.1,0-0.2,0c-0.1,0-0.3,0-0.3-0.2c0-0.2,0.1-0.3,0.4-0.3c0.2,0,0.4,0.1,0.5,0.1
	C82.5,24.7,82.7,25.1,82.8,25.7z M85.1,30.3c-0.3,0.7-0.8,1.1-1.5,1.3c-0.3,0.1-0.5,0-0.8-0.1c-3.3-1.4-5.7-3.7-7.1-7.1
	c-0.1-0.2-0.2-0.5-0.1-0.7c0-0.9,0.8-1.7,1.6-1.7c0.2,0,0.4,0.1,0.6,0.2c0.6,0.5,1.1,1.2,1.4,1.9c0.2,0.4,0.1,0.7-0.2,0.9
	c-0.1,0-0.1,0.1-0.2,0.1c-0.4,0.3-0.5,0.7-0.3,1.2c0.3,0.8,0.9,1.5,1.7,2c0.3,0.2,0.6,0.4,0.9,0.5c0.3,0.1,0.6,0,0.7-0.2
	c0,0,0-0.1,0.1-0.1c0.4-0.6,0.9-0.7,1.5-0.3c0.5,0.3,1,0.7,1.5,1.1C85.2,29.6,85.3,29.9,85.1,30.3z"/>
<path id="telegram_5_" fill="#FFFFFF" d="M33.1,20.8l-13.3,5c-0.7,0.2-0.7,0.9-0.2,1.1l3.3,1l1.3,3.9c0.2,0.4,0.3,0.6,0.5,0.6
	c0.3,0,0.4-0.1,0.7-0.4c0.3-0.3,0.9-0.8,1.7-1.6l3.5,2.6c0.6,0.4,1.1,0.2,1.3-0.6L34,21.7C34.3,20.8,33.7,20.5,33.1,20.8z
	 M23.5,27.7l7.6-4.7c0.4-0.2,0.5,0,0.3,0.2l-6.3,5.6l-0.3,2.8L23.5,27.7z"/>
<g id="whatsapp_9_">
	<g>
		<path fill-rule="evenodd" clip-rule="evenodd" fill="#FFFFFF" d="M131.7,18.7c-4.6,0-8.2,3.7-8.2,8.2c0,1.6,0.4,3,1.2,4.3
			l-1.5,4.4l4.6-1.5c1.2,0.7,2.5,1,4,1c4.6,0,8.2-3.7,8.2-8.2C140,22.4,136.3,18.7,131.7,18.7z M131.7,33.8c-1.4,0-2.7-0.4-3.8-1.1
			l-2.6,0.8l0.9-2.5c-0.8-1.1-1.3-2.5-1.3-4c0-3.8,3.1-6.9,6.9-6.9c3.8,0,6.9,3.1,6.9,6.9C138.6,30.8,135.5,33.8,131.7,33.8z
			 M135.6,28.9c-0.2-0.1-1.2-0.7-1.4-0.7c-0.2-0.1-0.3-0.1-0.5,0.1c-0.1,0.2-0.6,0.7-0.7,0.8c-0.1,0.1-0.3,0.1-0.5,0
			c-0.2-0.1-0.9-0.4-1.7-1.1c-0.6-0.6-1-1.3-1.1-1.5c-0.1-0.2,0-0.3,0.1-0.4c0.1-0.1,0.2-0.2,0.3-0.4c0.1-0.1,0.1-0.2,0.2-0.3
			c0.1-0.1,0-0.3,0-0.4c0-0.1-0.4-1.2-0.6-1.6c-0.2-0.4-0.3-0.4-0.5-0.4c-0.1,0-0.3,0-0.4,0c-0.1,0-0.4,0-0.6,0.2
			c-0.2,0.2-0.8,0.7-0.8,1.7c0,1,0.7,2.1,0.8,2.2c0.1,0.1,1.4,2.4,3.5,3.3c2.1,0.9,2.1,0.6,2.5,0.6c0.4,0,1.3-0.5,1.5-0.9
			c0.2-0.5,0.2-0.9,0.2-1C135.9,29,135.8,29,135.6,28.9z"/>
	</g>
</g>
</svg>
