<?xml version="1.0" encoding="utf-8"?>
<!-- Generator: Adobe Illustrator 18.0.0, SVG Export Plug-In . SVG Version: 6.00 Build 0)  -->
<!DOCTYPE svg PUBLIC "-//W3C//DTD SVG 1.1//EN" "http://www.w3.org/Graphics/SVG/1.1/DTD/svg11.dtd">
<svg version="1.1" id="Layer_1" xmlns="http://www.w3.org/2000/svg" xmlns:xlink="http://www.w3.org/1999/xlink" x="0px" y="0px"
	 viewBox="0 0 198 156" enable-background="new 0 0 198 156" xml:space="preserve">
<g>
	<g>
		<g>
			<path d="M97.6,30.5C97.6,30.5,97.5,30.5,97.6,30.5l-0.1,0.8c0,0,0,0.1,0.1,0.1c1.9,0.7,3.3,2.7,3.3,5.2v24.6
				c0,2.4-1.4,4.5-3.3,5.2c0,0-0.1,0.1-0.1,0.1V67c0,0,0,0.1,0.1,0.1c5.9-0.3,10.5-5.3,10.5-11.4V41.8
				C108.1,35.7,103.5,30.8,97.6,30.5z"/>
			<path d="M95.8,66.3C95.8,66.3,95.8,66.3,95.8,66.3c-0.7,0-1.4-0.1-1.5-0.1c-1.6-0.5-2.8-2.9-2.8-5.1V36.5c0-2.3,1.2-4.6,2.9-5.2
				c0.1,0,0.1-0.1,0.1-0.1l0-0.6c0-0.1,0-0.1-0.1-0.1c-4.4,0.1-8.2,2.8-9.9,6.6c0-3.3,0.3-5.3,1.4-6.6c2.3-2.9,7.3-2.8,14.5-5.6
				c7.2-2.8,8.4-11.3,4.3-14.6c-4.7-3.7-11.4,2.1-8.9,7.2c0,0.1,0.1,0.1,0.2,0.1l0.9-0.3c0.1,0,0.1-0.1,0.1-0.2
				c-2.1-5,4.2-8.8,7.1-5.8c1.7,1.8-1,5.2-7.9,7.4C82.2,23,83.7,20.8,83.5,41.1c0,0.1,0,0.2,0.1,0.3c0,0.1,0,0.3,0,0.5v13.9
				c0,6.1,4.7,11.1,10.7,11.4c0.3,0,0.5,0,0.7,0c0.1,1.5,0.2,5.5-1.1,7.7c-0.7,1.3-2.8,2.6-4.5,2.4c1.7-0.6,2.6-2.7,2.7-4.1
				c0.2-2.6-1.6-4.3-3.9-4.6c-1.9-0.3-3.6,0.8-4.3,2.4c-0.4,0.7-0.5,1.6-0.4,2.4c0.3,5,7.3,7.2,10.9,2.5
				C96.6,73.1,95.9,68,95.8,66.3C95.9,66.3,95.9,66.3,95.8,66.3z"/>
		</g>
	</g>
</g>
</svg>
